<mxfile host="app.diagrams.net" agent="Mozilla/5.0 (Windows NT 10.0; Win64; x64) AppleWebKit/537.36 (KHTML, like Gecko) Chrome/129.0.0.0 Safari/537.36" version="24.7.17">
  <diagram name="Page-1" id="r-Iut4U8kY-lTG84cQXH">
    <mxGraphModel dx="1134" dy="637" grid="1" gridSize="10" guides="1" tooltips="1" connect="1" arrows="1" fold="1" page="1" pageScale="1" pageWidth="850" pageHeight="1100" math="0" shadow="0">
      <root>
        <mxCell id="0" />
        <mxCell id="1" parent="0" />
        <mxCell id="FVzp5cuTIQmd7kD_CTYh-1" value="" style="group" vertex="1" connectable="0" parent="1">
          <mxGeometry x="40" y="350" width="790" height="330" as="geometry" />
        </mxCell>
        <mxCell id="JlN0RR8S-dvaQLJfnXvA-5" style="edgeStyle=orthogonalEdgeStyle;rounded=0;orthogonalLoop=1;jettySize=auto;html=1;entryX=0;entryY=0.5;entryDx=0;entryDy=0;flowAnimation=1;" parent="FVzp5cuTIQmd7kD_CTYh-1" source="JlN0RR8S-dvaQLJfnXvA-1" target="JlN0RR8S-dvaQLJfnXvA-2" edge="1">
          <mxGeometry relative="1" as="geometry" />
        </mxCell>
        <mxCell id="JlN0RR8S-dvaQLJfnXvA-6" style="edgeStyle=orthogonalEdgeStyle;rounded=0;orthogonalLoop=1;jettySize=auto;html=1;entryX=0;entryY=0.5;entryDx=0;entryDy=0;flowAnimation=1;" parent="FVzp5cuTIQmd7kD_CTYh-1" source="JlN0RR8S-dvaQLJfnXvA-1" target="JlN0RR8S-dvaQLJfnXvA-3" edge="1">
          <mxGeometry relative="1" as="geometry" />
        </mxCell>
        <mxCell id="JlN0RR8S-dvaQLJfnXvA-7" style="edgeStyle=orthogonalEdgeStyle;rounded=0;orthogonalLoop=1;jettySize=auto;html=1;flowAnimation=1;" parent="FVzp5cuTIQmd7kD_CTYh-1" source="JlN0RR8S-dvaQLJfnXvA-1" target="JlN0RR8S-dvaQLJfnXvA-4" edge="1">
          <mxGeometry relative="1" as="geometry" />
        </mxCell>
        <mxCell id="JlN0RR8S-dvaQLJfnXvA-1" value="" style="rounded=0;whiteSpace=wrap;html=1;fillColor=#d5e8d4;gradientColor=#97d077;strokeColor=#82b366;" parent="FVzp5cuTIQmd7kD_CTYh-1" vertex="1">
          <mxGeometry x="160" y="50" width="340" height="220" as="geometry" />
        </mxCell>
        <mxCell id="JlN0RR8S-dvaQLJfnXvA-2" value="&lt;b&gt;NODE&lt;/b&gt;" style="rounded=1;whiteSpace=wrap;html=1;fillColor=#dae8fc;gradientColor=#7ea6e0;strokeColor=#6c8ebf;" parent="FVzp5cuTIQmd7kD_CTYh-1" vertex="1">
          <mxGeometry x="670" y="10" width="120" height="60" as="geometry" />
        </mxCell>
        <mxCell id="JlN0RR8S-dvaQLJfnXvA-3" value="&lt;b&gt;NODE&lt;/b&gt;" style="rounded=1;whiteSpace=wrap;html=1;fillColor=#dae8fc;gradientColor=#7ea6e0;strokeColor=#6c8ebf;" parent="FVzp5cuTIQmd7kD_CTYh-1" vertex="1">
          <mxGeometry x="670" y="130" width="120" height="60" as="geometry" />
        </mxCell>
        <mxCell id="JlN0RR8S-dvaQLJfnXvA-4" value="&lt;b&gt;NODE&lt;/b&gt;" style="rounded=1;whiteSpace=wrap;html=1;fillColor=#dae8fc;gradientColor=#7ea6e0;strokeColor=#6c8ebf;" parent="FVzp5cuTIQmd7kD_CTYh-1" vertex="1">
          <mxGeometry x="670" y="270" width="120" height="60" as="geometry" />
        </mxCell>
        <mxCell id="JlN0RR8S-dvaQLJfnXvA-8" value="&lt;b&gt;Prometheus Server&lt;/b&gt;" style="text;html=1;align=center;verticalAlign=middle;resizable=0;points=[];autosize=1;strokeColor=none;fillColor=none;" parent="FVzp5cuTIQmd7kD_CTYh-1" vertex="1">
          <mxGeometry x="275" y="50" width="130" height="30" as="geometry" />
        </mxCell>
        <mxCell id="JlN0RR8S-dvaQLJfnXvA-9" value="&lt;b&gt;node exporter&lt;/b&gt;" style="text;html=1;align=center;verticalAlign=middle;resizable=0;points=[];autosize=1;strokeColor=none;fillColor=none;" parent="FVzp5cuTIQmd7kD_CTYh-1" vertex="1">
          <mxGeometry x="680" width="100" height="30" as="geometry" />
        </mxCell>
        <mxCell id="JlN0RR8S-dvaQLJfnXvA-10" value="&lt;b&gt;node exporter&lt;/b&gt;" style="text;html=1;align=center;verticalAlign=middle;resizable=0;points=[];autosize=1;strokeColor=none;fillColor=none;" parent="FVzp5cuTIQmd7kD_CTYh-1" vertex="1">
          <mxGeometry x="680" y="130" width="100" height="30" as="geometry" />
        </mxCell>
        <mxCell id="JlN0RR8S-dvaQLJfnXvA-11" value="&lt;b&gt;node exporter&lt;/b&gt;" style="text;html=1;align=center;verticalAlign=middle;resizable=0;points=[];autosize=1;strokeColor=none;fillColor=none;" parent="FVzp5cuTIQmd7kD_CTYh-1" vertex="1">
          <mxGeometry x="680" y="260" width="100" height="30" as="geometry" />
        </mxCell>
        <mxCell id="JlN0RR8S-dvaQLJfnXvA-12" value="&lt;b&gt;TSD&lt;/b&gt;" style="shape=cylinder3;whiteSpace=wrap;html=1;boundedLbl=1;backgroundOutline=1;size=15;fillColor=#f8cecc;gradientColor=#ea6b66;strokeColor=#b85450;" parent="FVzp5cuTIQmd7kD_CTYh-1" vertex="1">
          <mxGeometry x="340" y="75" width="70" height="80" as="geometry" />
        </mxCell>
        <mxCell id="JlN0RR8S-dvaQLJfnXvA-14" style="edgeStyle=orthogonalEdgeStyle;rounded=0;orthogonalLoop=1;jettySize=auto;html=1;" parent="FVzp5cuTIQmd7kD_CTYh-1" source="JlN0RR8S-dvaQLJfnXvA-13" target="JlN0RR8S-dvaQLJfnXvA-12" edge="1">
          <mxGeometry relative="1" as="geometry" />
        </mxCell>
        <mxCell id="JlN0RR8S-dvaQLJfnXvA-13" value="&lt;b&gt;HTTP&lt;/b&gt;" style="ellipse;whiteSpace=wrap;html=1;fillColor=#fff2cc;gradientColor=#ffd966;strokeColor=#d6b656;" parent="FVzp5cuTIQmd7kD_CTYh-1" vertex="1">
          <mxGeometry x="170" y="85" width="100" height="60" as="geometry" />
        </mxCell>
        <mxCell id="JlN0RR8S-dvaQLJfnXvA-16" style="edgeStyle=orthogonalEdgeStyle;rounded=0;orthogonalLoop=1;jettySize=auto;html=1;entryX=0;entryY=0.5;entryDx=0;entryDy=0;flowAnimation=1;" parent="FVzp5cuTIQmd7kD_CTYh-1" source="JlN0RR8S-dvaQLJfnXvA-15" target="JlN0RR8S-dvaQLJfnXvA-13" edge="1">
          <mxGeometry relative="1" as="geometry" />
        </mxCell>
        <mxCell id="JlN0RR8S-dvaQLJfnXvA-15" value="" style="html=1;verticalLabelPosition=bottom;align=center;labelBackgroundColor=#ffffff;verticalAlign=top;strokeWidth=2;strokeColor=#0080F0;shadow=0;dashed=0;shape=mxgraph.ios7.icons.user;" parent="FVzp5cuTIQmd7kD_CTYh-1" vertex="1">
          <mxGeometry y="90" width="60" height="50" as="geometry" />
        </mxCell>
        <mxCell id="JlN0RR8S-dvaQLJfnXvA-17" value="&lt;b&gt;Alert&amp;nbsp;&lt;/b&gt;&lt;div&gt;&lt;b&gt;Manager&lt;/b&gt;&lt;/div&gt;" style="ellipse;whiteSpace=wrap;html=1;aspect=fixed;fillColor=#e6d0de;gradientColor=#d5739d;strokeColor=#996185;" parent="FVzp5cuTIQmd7kD_CTYh-1" vertex="1">
          <mxGeometry x="280" y="170" width="80" height="80" as="geometry" />
        </mxCell>
        <mxCell id="JlN0RR8S-dvaQLJfnXvA-18" value="&lt;b&gt;Service&amp;nbsp;&lt;/b&gt;&lt;div&gt;&lt;b&gt;Discovery&lt;/b&gt;&lt;/div&gt;" style="shape=parallelogram;perimeter=parallelogramPerimeter;whiteSpace=wrap;html=1;fixedSize=1;fillColor=#f5f5f5;gradientColor=#b3b3b3;strokeColor=#666666;" parent="FVzp5cuTIQmd7kD_CTYh-1" vertex="1">
          <mxGeometry x="380" y="190" width="120" height="60" as="geometry" />
        </mxCell>
        <mxCell id="JlN0RR8S-dvaQLJfnXvA-20" style="edgeStyle=orthogonalEdgeStyle;rounded=0;orthogonalLoop=1;jettySize=auto;html=1;entryX=0.5;entryY=1;entryDx=0;entryDy=0;flowAnimation=1;" parent="FVzp5cuTIQmd7kD_CTYh-1" source="JlN0RR8S-dvaQLJfnXvA-19" target="JlN0RR8S-dvaQLJfnXvA-13" edge="1">
          <mxGeometry relative="1" as="geometry" />
        </mxCell>
        <mxCell id="JlN0RR8S-dvaQLJfnXvA-19" value="&lt;b&gt;Grafana&lt;/b&gt;" style="whiteSpace=wrap;html=1;aspect=fixed;fillColor=#dae8fc;gradientColor=#7ea6e0;strokeColor=#6c8ebf;" parent="FVzp5cuTIQmd7kD_CTYh-1" vertex="1">
          <mxGeometry x="180" y="170" width="80" height="80" as="geometry" />
        </mxCell>
        <mxCell id="JlN0RR8S-dvaQLJfnXvA-22" style="edgeStyle=orthogonalEdgeStyle;rounded=0;orthogonalLoop=1;jettySize=auto;html=1;entryX=0;entryY=0.5;entryDx=0;entryDy=0;flowAnimation=1;" parent="FVzp5cuTIQmd7kD_CTYh-1" source="JlN0RR8S-dvaQLJfnXvA-21" target="JlN0RR8S-dvaQLJfnXvA-19" edge="1">
          <mxGeometry relative="1" as="geometry" />
        </mxCell>
        <mxCell id="JlN0RR8S-dvaQLJfnXvA-21" value="" style="html=1;verticalLabelPosition=bottom;align=center;labelBackgroundColor=#ffffff;verticalAlign=top;strokeWidth=2;strokeColor=#0080F0;shadow=0;dashed=0;shape=mxgraph.ios7.icons.user;" parent="FVzp5cuTIQmd7kD_CTYh-1" vertex="1">
          <mxGeometry y="182.5" width="70" height="55" as="geometry" />
        </mxCell>
      </root>
    </mxGraphModel>
  </diagram>
</mxfile>
